<?xml version="1.0" encoding="utf-8"?>
<!-- Generator: Adobe Illustrator 16.0.0, SVG Export Plug-In . SVG Version: 6.00 Build 0)  -->
<!DOCTYPE svg PUBLIC "-//W3C//DTD SVG 1.1//EN" "http://www.w3.org/Graphics/SVG/1.1/DTD/svg11.dtd">
<svg version="1.1" id="Calque_1" xmlns="http://www.w3.org/2000/svg" xmlns:xlink="http://www.w3.org/1999/xlink" x="0px" y="0px"
	 width="646px" height="515px" viewBox="0 0 646 515" enable-background="new 0 0 646 515" xml:space="preserve">
<rect x="19" fill="#F9F6E4" width="606" height="398.1"/>
<rect x="302.459" y="356.824" fill="#9D9D9C" stroke="#000000" stroke-miterlimit="10" width="40.939" height="82.551"/>
<path fill="none" stroke="#000000" stroke-width="2" stroke-miterlimit="10" d="M392.667,175.955
	c1.27,41.859,1.603,81.674-24.566,116.37c-15.576,20.652-32.108,38.166-38.838,63.915c-2.235,8.552-4.495,17.303-5.596,26.093"/>
<rect x="58.853" y="267.563" fill="#CA9E67" stroke="#000000" stroke-miterlimit="10" width="308.724" height="98.365"/>
<rect x="74.685" y="365.928" fill="#CA9E67" stroke="#000000" stroke-miterlimit="10" width="9.675" height="112.584"/>
<rect x="343.397" y="365.928" fill="#CA9E67" stroke="#000000" stroke-miterlimit="10" width="9.676" height="112.584"/>
<rect x="151.041" y="233.88" fill="#BAE3FA" stroke="#000000" stroke-width="3" stroke-miterlimit="10" width="119.215" height="76.511"/>
<line fill="none" stroke="#000000" stroke-width="3" stroke-miterlimit="10" x1="210.649" y1="310.391" x2="210.649" y2="320.457"/>
<line fill="none" stroke="#000000" stroke-width="3" stroke-miterlimit="10" x1="189.844" y1="320.457" x2="231.454" y2="320.457"/>
<g>
	<g>
		<rect x="264.256" y="322.738" fill="#9D9D9C" stroke="#000000" stroke-miterlimit="10" width="14.27" height="23.973"/>
		<line fill="none" stroke="#000000" stroke-miterlimit="10" x1="264.256" y1="334.725" x2="278.526" y2="334.725"/>
		<line fill="none" stroke="#000000" stroke-miterlimit="10" x1="271.391" y1="322.738" x2="271.391" y2="334.725"/>
	</g>
	<path fill="none" stroke="#000000" stroke-miterlimit="10" d="M272.31,347.039c13.561,22.364-17.235,51.903,13.623,67.288
		c5.779,2.882,14.998,2.67,21.276,2.182"/>
</g>
<rect x="300.463" y="19.913" fill="#BAE3FA" stroke="#000000" stroke-width="3" stroke-miterlimit="10" width="251.007" height="156.376"/>
<g>
	<path fill="#2FAC66" stroke="#000000" stroke-miterlimit="10" d="M109.647,292.396c3.854-2.627,6.91-3.531,5.971-9.446
		c-21.42-0.063-4.844-28.513-26.491-21.961c0.97,9.437-0.4,11.287-7.582,15.252c3.725,6.051,0.97,1.663,2.204,9.509
		c-9.988,0.753-6.25,5.5-4.724,7.317c9.706-0.629,20.453,1.379,30.372,1.256"/>
	<polygon fill="#FFFFFF" stroke="#000000" stroke-miterlimit="10" points="81.185,293.067 86.022,316.745 104.95,316.745 
		109.647,293.067 	"/>
</g>
<g>
	<rect x="162.649" y="406.257" fill="#CBBBA0" stroke="#000000" stroke-miterlimit="10" width="96" height="31"/>
	<rect x="162.649" y="351.184" fill="#CBBBA0" stroke="#000000" stroke-miterlimit="10" width="96" height="46.793"/>
	<line fill="none" stroke="#000000" stroke-miterlimit="10" x1="162.649" y1="437.257" x2="162.649" y2="493.257"/>
	<line fill="none" stroke="#000000" stroke-miterlimit="10" x1="258.649" y1="437.257" x2="258.649" y2="493.257"/>
	<line fill="none" stroke="#000000" stroke-miterlimit="10" x1="183.649" y1="379.091" x2="183.649" y2="437.382"/>
	<line fill="none" stroke="#000000" stroke-miterlimit="10" x1="237.103" y1="379.091" x2="237.103" y2="437.382"/>
</g>
<text transform="matrix(1 0 0 1 316.6489 160.3281)" font-family="'OratorStd'" font-size="12">Ecran 2</text>
<text transform="matrix(1 0 0 1 162.6489 297.6401)" font-family="'OratorStd'" font-size="12">Ecran 1</text>
<text transform="matrix(1 0 0 1 74.6851 331.6406)"><tspan x="0" y="0" font-family="'OratorStd'" font-size="12">Plante</tspan><tspan x="0" y="11" font-family="'OratorStd'" font-size="12">verte</tspan></text>
<text transform="matrix(1 0 0 1 170.6851 453.8447)"><tspan x="0" y="0" font-family="'OratorStd'" font-size="12">Chaise de</tspan><tspan x="0" y="11" font-family="'OratorStd'" font-size="12">bureau</tspan></text>
<text transform="matrix(1 0 0 1 309.1294 282.5107)" font-family="'OratorStd'" font-size="12">Bureau</text>
<text transform="matrix(1 0 0 1 397.6289 214.5107)"><tspan x="0" y="0" font-family="'OratorStd'" font-size="12">HDMI</tspan><tspan x="0" y="11" font-family="'OratorStd'" font-size="12">long</tspan></text>
<text transform="matrix(1 0 0 1 482.6289 214.5107)" font-family="'OratorStd'" font-size="12">alim</text>
<text transform="matrix(0 -1 1 0 598.9473 340.334)" font-family="'OratorStd'" font-size="12">Hauteur de lՎcran : 2,50 environ</text>
<text transform="matrix(1 0 0 1 367.5776 385.8438)" font-family="'OratorStd'" font-size="12">alim</text>
<text transform="matrix(0.5233 0.8521 -0.8521 0.5233 288.3926 332.5928)" font-family="'OratorStd'" font-size="12">alim</text>
<text transform="matrix(0.8206 0.5715 -0.5715 0.8206 290.27 308.9697)" font-family="'OratorStd'" font-size="12">HDMI</text>
<text transform="matrix(1 0 0 1 217.4536 341.0449)" font-family="'OratorStd'" font-size="12">Souris</text>
<text transform="matrix(1 0 0 1 309.1294 432.5117)" font-family="'OratorStd'" font-size="12">PC</text>
<path fill="none" stroke="#000000" stroke-width="2" stroke-miterlimit="10" d="M271.333,298.667
	c5.75,12.639,18.313,15.896,28.272,24.198c12.478,10.402,17.924,22.943,19.049,38.738c0.482,6.767,0.614,13.617,0.345,20.396"/>
<rect x="366.578" y="416.801" fill="none" stroke="#000000" stroke-miterlimit="10" width="44.922" height="15.711"/>
<circle fill="none" stroke="#000000" stroke-miterlimit="10" cx="375.5" cy="424.655" r="4.889"/>
<circle fill="none" stroke="#000000" stroke-miterlimit="10" cx="389.334" cy="424.655" r="4.889"/>
<circle fill="none" stroke="#000000" stroke-miterlimit="10" cx="403.168" cy="424.655" r="4.889"/>
<circle cx="373.584" cy="424.655" r="1.083"/>
<circle cx="377.417" cy="424.655" r="1.083"/>
<circle cx="387.417" cy="424.655" r="1.083"/>
<circle cx="391.251" cy="424.655" r="1.083"/>
<circle cx="401.251" cy="424.655" r="1.083"/>
<circle cx="405.085" cy="424.655" r="1.083"/>
<path fill="none" stroke="#000000" stroke-miterlimit="10" d="M476,177.334c0.408,24.712,0.681,49.625-2.521,74.181
	c-3.682,28.248-15.019,52.188-26.16,78c-11.11,25.735-22.18,49.533-34.896,74.286c-2.125,4.135-6.119,8.44-7.338,13"/>
<path fill="none" stroke="#000000" stroke-miterlimit="10" d="M270.5,309c16.392,14.773,34.059,21.805,39.77,45.316
	c4.739,19.514-0.28,42.478,18.018,56.012c11.002,8.138,25.514,7.522,38.29,10.422"/>
<path fill="none" stroke="#000000" stroke-miterlimit="10" d="M329.75,382c21.952-7.411,39.522,6.637,52.562,23.389
	c2.731,3.509,5.145,6.898,6.688,11.111"/>
<g>
	<g>
		<line fill="none" stroke="#000000" stroke-miterlimit="10" x1="584.666" y1="98.101" x2="584.666" y2="100.101"/>
		
			<line fill="none" stroke="#000000" stroke-miterlimit="10" stroke-dasharray="4.0531,4.0531" x1="584.666" y1="104.154" x2="584.666" y2="393.95"/>
		<line fill="none" stroke="#000000" stroke-miterlimit="10" x1="584.666" y1="395.977" x2="584.666" y2="397.977"/>
	</g>
</g>
<line fill="none" stroke="#000000" stroke-miterlimit="10" stroke-dasharray="4" x1="584.666" y1="98.101" x2="551.47" y2="98.101"/>
</svg>
